<svg xmlns="http://www.w3.org/2000/svg" width="16" height="16" fill="none" xmlns:v="https://vecta.io/nano"><path d="M6 1a2 2 0 0 0-2 2v2.207a5.48 5.48 0 0 1 1-.185V3a1 1 0 0 1 1-1h3v2.5A1.5 1.5 0 0 0 10.5 6H13v7a1 1 0 0 1-1 1H9.743c-.313.379-.677.716-1.08 1H12a2 2 0 0 0 2-2V5.414a1.5 1.5 0 0 0-.439-1.061l-2.914-2.914A1.5 1.5 0 0 0 9.586 1H6zm6.793 4H10.5a.5.5 0 0 1-.5-.5V2.207L12.793 5zM10 10.5a4.5 4.5 0 1 1-9 0 4.5 4.5 0 1 1 9 0zm-4-2a.5.5 0 1 0-1 0V10H3.5a.5.5 0 1 0 0 1H5v1.5a.5.5 0 1 0 1 0V11h1.5a.5.5 0 1 0 0-1H6V8.5z" fill="#212121"/></svg>