<svg xmlns="http://www.w3.org/2000/svg" width="20" height="20" fill="none" xmlns:v="https://vecta.io/nano"><path d="M4.5 17.001a1.5 1.5 0 0 1-1.493-1.356L3 15.501v-11a1.5 1.5 0 0 1 1.356-1.493l.144-.007H9a1.5 1.5 0 0 1 1.493 1.356l.007.144v.254l2.189-2.269a1.5 1.5 0 0 1 2.007-.138l.116.101 2.758 2.725a1.5 1.5 0 0 1 .111 2.011l-.103.115-2.311 2.2.234.001a1.5 1.5 0 0 1 1.493 1.356l.007.144v4.5a1.5 1.5 0 0 1-1.355 1.493l-.145.007h-11zm5-6.5H4v5a.5.5 0 0 0 .326.469l.085.023.09.008h5v-5.5zm6 0h-5v5.5h5a.5.5 0 0 0 .492-.41l.008-.09v-4.5a.5.5 0 0 0-.41-.492l-.09-.008zm-5-2.791V9.5h1.79L10.5 7.71zM9 4.001H4.5a.5.5 0 0 0-.492.41L4 4.501v5h5.5v-5a.5.5 0 0 0-.326-.469l-.085-.023L9 4.001zm5.122-.827c-.183-.176-.453-.191-.645-.053l-.068.059-2.616 2.714a.5.5 0 0 0-.057.623l.063.077 2.616 2.616a.5.5 0 0 0 .62.07l.079-.061 2.758-2.627a.5.5 0 0 0 .054-.638l-.058-.069-2.744-2.712z" fill="#212121"/></svg>