<svg xmlns="http://www.w3.org/2000/svg" width="16" height="16" fill="none" xmlns:v="https://vecta.io/nano"><path d="M4.5 2A2.5 2.5 0 0 0 2 4.5v7A2.5 2.5 0 0 0 4.5 14h7a2.5 2.5 0 0 0 2.5-2.5v-7A2.5 2.5 0 0 0 11.5 2h-7zM3 4.5A1.5 1.5 0 0 1 4.5 3h7A1.5 1.5 0 0 1 13 4.5v7a1.5 1.5 0 0 1-1.5 1.5h-7A1.5 1.5 0 0 1 3 11.5v-7zm6.854 1.146a.5.5 0 0 0-.707.707L10.793 8 9.146 9.646a.5.5 0 1 0 .707.707l2-2a.5.5 0 0 0 0-.707l-2-2zm-3 .707a.5.5 0 0 0-.707-.707l-2 2a.5.5 0 0 0 0 .707l2 2a.5.5 0 1 0 .707-.707L5.207 8l1.646-1.646z" fill="#212121"/></svg>