<svg xmlns="http://www.w3.org/2000/svg" width="16" height="16" fill="none" xmlns:v="https://vecta.io/nano"><path d="M5 1a2 2 0 0 0-2 2v9.998a2 2 0 0 0 2 2h1.046l.25-1H5a1 1 0 0 1-1-1V3a1 1 0 0 1 1-1h2.999v2.5a1.5 1.5 0 0 0 1.5 1.5h2.5v1.441c.306-.209.648-.344 1-.405V5.413a1.5 1.5 0 0 0-.439-1.06L9.645 1.439A1.5 1.5 0 0 0 8.585 1H5zm6.792 3.999H9.499a.5.5 0 0 1-.5-.5V2.207l2.792 2.792zm1.207 3.061c-.242.071-.471.202-.662.394l-4.288 4.288c-.348.348-.597.781-.722 1.256l-.009.034-.303 1.211a.61.61 0 0 0 .739.739l1.211-.303c.488-.122.934-.374 1.29-.73l4.288-4.288a1.56 1.56 0 0 0-1.545-2.6z" fill="#212121"/></svg>