<svg xmlns="http://www.w3.org/2000/svg" width="16" height="16" fill="none" xmlns:v="https://vecta.io/nano"><path d="M2.984 8.625l-.001.003a.5.5 0 0 1-.611.355c-.431-.114-.355-.611-.355-.611l.018-.061.047-.145.198-.496a6.7 6.7 0 0 1 .919-1.487C4.096 5.089 5.605 4 8 4s3.904 1.089 4.801 2.183a6.7 6.7 0 0 1 .919 1.487l.198.496.047.145.012.042.004.013.001.004v.002.001a.5.5 0 1 1-.966.258v-.001l-.001-.003-.007-.025-.035-.109-.164-.411c-.155-.345-.405-.805-.781-1.263C11.286 5.912 10.045 5 8 5s-3.286.912-4.028 1.817a5.7 5.7 0 0 0-.781 1.263l-.164.411-.035.109-.007.025zM8 7a2.5 2.5 0 1 0 0 5 2.5 2.5 0 1 0 0-5zM6.5 9.5a1.5 1.5 0 1 1 3 0 1.5 1.5 0 1 1-3 0z" fill="#212121"/></svg>