<svg xmlns="http://www.w3.org/2000/svg" width="48" height="48" fill="none" xmlns:v="https://vecta.io/nano"><path d="M6.5 12.25V16h10.215a1.25 1.25 0 0 0 .884-.366l3.384-3.384-3.384-3.384a1.25 1.25 0 0 0-.884-.366H10.25a3.75 3.75 0 0 0-3.75 3.75zm-2.5 0A6.25 6.25 0 0 1 10.25 6h6.465a3.75 3.75 0 0 1 2.652 1.098L23.268 11H37.75A6.25 6.25 0 0 1 44 17.25v7.369c-.752-.722-1.591-1.354-2.5-1.88V17.25a3.75 3.75 0 0 0-3.75-3.75H23.268l-3.902 3.902a3.75 3.75 0 0 1-2.652 1.098H6.5v16.25a3.75 3.75 0 0 0 3.75 3.75H22.8c.326.882.744 1.72 1.244 2.5H10.25A6.25 6.25 0 0 1 4 34.75v-22.5zM46 34c0 6.075-4.925 11-11 11s-11-4.925-11-11 4.925-11 11-11 11 4.925 11 11zm-10.293-7.707a1 1 0 0 0-1.414 0l-5 5a1 1 0 0 0 1.414 1.414L34 29.414V41a1 1 0 1 0 2 0V29.414l3.293 3.293a1 1 0 0 0 1.414-1.414l-5-5z" fill="#212121"/></svg>