<svg xmlns="http://www.w3.org/2000/svg" width="16" height="16" fill="none" xmlns:v="https://vecta.io/nano"><path d="M2 4.5V6h3.586a.5.5 0 0 0 .354-.146L7.293 4.5 5.939 3.146A.5.5 0 0 0 5.586 3H3.5A1.5 1.5 0 0 0 2 4.5zm-1 0A2.5 2.5 0 0 1 3.5 2h2.086a1.5 1.5 0 0 1 1.061.439L8.207 4H12.5A2.5 2.5 0 0 1 15 6.5v.757c-.307-.254-.642-.475-1-.657v-.1A1.5 1.5 0 0 0 12.5 5H8.207L6.646 6.561A1.5 1.5 0 0 1 5.586 7H2v4.5A1.5 1.5 0 0 0 3.5 13h2.707c.099.349.231.683.393 1H3.5A2.5 2.5 0 0 1 1 11.5v-7zm15 7a4.5 4.5 0 1 1-9 0 4.5 4.5 0 1 1 9 0zm-4-2a.5.5 0 1 0-1 0V11H9.5a.5.5 0 1 0 0 1H11v1.5a.5.5 0 1 0 1 0V12h1.5a.5.5 0 1 0 0-1H12V9.5z" fill="#212121"/></svg>