<svg xmlns="http://www.w3.org/2000/svg" width="16" height="16" fill="none" xmlns:v="https://vecta.io/nano"><path d="M2 4.5V6h3.586a.5.5 0 0 0 .354-.146L7.293 4.5 5.939 3.146A.5.5 0 0 0 5.586 3H3.5A1.5 1.5 0 0 0 2 4.5zm-1 0A2.5 2.5 0 0 1 3.5 2h2.086a1.5 1.5 0 0 1 1.061.439L8.207 4H12.5A2.5 2.5 0 0 1 15 6.5v5a2.5 2.5 0 0 1-2.5 2.5h-9A2.5 2.5 0 0 1 1 11.5v-7zM2 7v4.5A1.5 1.5 0 0 0 3.5 13h9a1.5 1.5 0 0 0 1.5-1.5v-5A1.5 1.5 0 0 0 12.5 5H8.207L6.646 6.561A1.5 1.5 0 0 1 5.586 7H2z" fill="#212121"/></svg>