<svg xmlns="http://www.w3.org/2000/svg" width="20" height="20" fill="none" xmlns:v="https://vecta.io/nano"><path d="M2 5.5A2.5 2.5 0 0 1 4.5 3h2.482a1.75 1.75 0 0 1 1.237.513L9.707 5H15.5A2.5 2.5 0 0 1 18 7.5v7a2.5 2.5 0 0 1-2.5 2.5h-11A2.5 2.5 0 0 1 2 14.5v-9zM14 16h1.5a1.5 1.5 0 0 0 1.5-1.5v-7A1.5 1.5 0 0 0 15.5 6H15v3.5a.5.5 0 0 1-.5.5H14v2h.5a.5.5 0 1 1 0 1H14v3zm0-10h-1v3h1V6zm-2 0H9.707L8.146 7.561A1.5 1.5 0 0 1 7.086 8H3v6.5A1.5 1.5 0 0 0 4.5 16H13v-2h-.5a.5.5 0 1 1 0-1h.5v-1h-.5a.5.5 0 1 1 0-1h.5v-1h-.5a.5.5 0 0 1-.5-.5V6zM4.5 4A1.5 1.5 0 0 0 3 5.5V7h4.086a.5.5 0 0 0 .354-.146L8.793 5.5l-1.28-1.28a.75.75 0 0 0-.53-.22H4.5z" fill="#212121"/></svg>