<svg xmlns="http://www.w3.org/2000/svg" width="20" height="20" fill="none" xmlns:v="https://vecta.io/nano"><path d="M6.001 2a.5.5 0 0 1 .466.319L8.897 8.57l.008.022.17.437-.527 1.405-.455-1.171H3.907l-.941 2.42a.5.5 0 1 1-.932-.362l1.061-2.728.008-.022 2.431-6.251A.5.5 0 0 1 6.001 2zM4.296 8.262h3.408L6.001 3.88 4.296 8.262zm8.171-2.94a.5.5 0 0 0-.935.003L7.154 17H6.5a.5.5 0 0 0 0 1h.99H8.5a.5.5 0 0 0 0-1h-.279l1.125-3h5.373l1.149 2.999H15.5a.5.5 0 1 0 0 1h2a.5.5 0 1 0 0-1h-.561L12.467 5.321zM14.337 13H9.722l2.283-6.089L14.337 13z" fill="#212121"/></svg>