<svg xmlns="http://www.w3.org/2000/svg" width="24" height="24" fill="none" xmlns:v="https://vecta.io/nano"><path d="M18 20.5h-7.034a2.94 2.94 0 0 1-.702 1.5H18a2 2 0 0 0 2-2V9.828a2 2 0 0 0-.586-1.414l-5.829-5.828a.49.49 0 0 0-.049-.041l-.036-.029-.219-.18a.65.65 0 0 0-.081-.044l-.047-.024-.05-.029-.166-.087c-.197-.082-.409-.123-.624-.138l-.059-.007L12.172 2H6a2 2 0 0 0-2 2v10.018A1.76 1.76 0 0 1 4.25 14c.49 0 .932.201 1.25.525V4a.5.5 0 0 1 .5-.5h6V8a2 2 0 0 0 2 2h4.5v10a.5.5 0 0 1-.5.5zm-.622-12H14a.5.5 0 0 1-.5-.5V4.621L17.378 8.5zM4.25 15a.75.75 0 0 1 .75.75V20a2 2 0 1 1-4 0v-.25a.75.75 0 1 1 1.5 0V20a.5.5 0 1 0 1 0v-4.25a.75.75 0 0 1 .75-.75zm3.7 0A1.95 1.95 0 0 0 6 16.95v.234a1.75 1.75 0 0 0 .85 1.501l1.529.917a.25.25 0 0 1 .121.214v.234a.45.45 0 0 1-.45.45h-.1a.45.45 0 0 1-.45-.45V20A.75.75 0 1 0 6 20v.05A1.95 1.95 0 0 0 7.95 22h.1A1.95 1.95 0 0 0 10 20.05v-.234a1.75 1.75 0 0 0-.85-1.501l-1.529-.917a.25.25 0 0 1-.121-.214v-.234a.45.45 0 0 1 .45-.45h.1a.45.45 0 0 1 .45.45V17a.75.75 0 1 0 1.5 0v-.05A1.95 1.95 0 0 0 8.05 15h-.1z" fill="#212121"/></svg>