<svg xmlns="http://www.w3.org/2000/svg" height="100%" stroke-miterlimit="10" viewBox="0 0 20 20" width="100%" fill-rule="nonzero" stroke-linecap="round" stroke-linejoin="round" fill="#212121" xmlns:v="https://vecta.io/nano"><path d="M3 4.495a2 2 0 0 1 2-2h10a2 2 0 0 1 2 2V12a2 2 0 0 1-2 2H5a2 2 0 0 1-2-2V4.495zm2-1a1 1 0 0 0-1 1V12a1 1 0 0 0 1 1h10a1 1 0 0 0 1-1V4.495a1 1 0 0 0-1-1H5zM2 15.5a.5.5 0 0 1 .5-.5h15a.5.5 0 1 1 0 1h-15a.5.5 0 0 1-.5-.5zm3.958-9.722c0-.698.565-1.263 1.263-1.263h1.254c.234 0 .459.093.625.259l.751.751h2.927c.698 0 1.263.565 1.263 1.263v3.536c0 .697-.565 1.263-1.263 1.263H7.221c-.698 0-1.263-.566-1.263-1.263V5.778zm6.062 5.305h.758a.76.76 0 0 0 .758-.758V6.788a.76.76 0 0 0-.758-.758h-.253v1.768c0 .14-.113.253-.253.253h-.253v1.01h.253c.139 0 .253.113.253.253s-.113.253-.253.253h-.253v1.516zm0-5.052h-.505v1.516h.505V6.03zm-1.01 0H9.852l-.788.788a.76.76 0 0 1-.536.222H6.464v3.284a.76.76 0 0 0 .758.758h4.294v-1.01h-.253c-.139 0-.253-.113-.253-.253s.113-.253.253-.253h.253v-.505h-.253c-.139 0-.253-.113-.253-.253s.113-.253.253-.253h.253v-.505h-.253c-.139 0-.253-.113-.253-.253V6.03zM7.221 5.02a.76.76 0 0 0-.758.758v.758h2.064c.067 0 .131-.027.179-.074l.684-.684-.647-.647a.38.38 0 0 0-.268-.111H7.221zm.958 3.172c-.002-.117.133-.183.225-.111L9.948 9.31c.102.081.046.245-.084.247l-.774.013a.21.21 0 0 0-.156.074l-.479.572a.14.14 0 0 1-.245-.087l-.031-1.938zm1.682 1.227L8.318 8.19l.031 1.938.479-.572c.064-.077.159-.122.26-.124l.774-.013z"/></svg>