<svg xmlns="http://www.w3.org/2000/svg" width="20" height="20" fill="none" xmlns:v="https://vecta.io/nano"><path d="M6.501 11a.5.5 0 0 0-.5.5v2a.5.5 0 1 0 1 0v-.166h.333c.644 0 1.167-.522 1.167-1.167S7.978 11 7.334 11h-.833zm.833 1.334h-.333V12h.333c.092 0 .167.075.167.167s-.075.167-.167.167zm4.668-.834a.5.5 0 0 1 .5-.499h.998a.5.5 0 1 1 0 1h-.499v.335h.499a.5.5 0 1 1 0 1h-.499v.164a.5.5 0 1 1-1 .003L12 12.834l.002-1.335zM9.499 11a.5.5 0 0 0-.5.5v2a.5.5 0 0 0 .5.5h.501a1.5 1.5 0 1 0 0-3h-.501zm.5 2v-1h.001a.5.5 0 1 1 0 1h-.001zM4.001 4a2 2 0 0 1 2-2h4.586a1.5 1.5 0 0 1 1.061.439l3.914 3.914A1.5 1.5 0 0 1 16 7.414v1.667a1.5 1.5 0 0 1 .999 1.414v4.003A1.5 1.5 0 0 1 16 15.913V16a2 2 0 0 1-2 2h-8a2 2 0 0 1-2-2v-.087a1.5 1.5 0 0 1-.999-1.414v-4.003a1.5 1.5 0 0 1 .999-1.414V4zm11 4h-3.5a1.5 1.5 0 0 1-1.5-1.5V3h-4a1 1 0 0 0-1 1v4.996h10V8zm-10 7.999a1 1 0 0 0 1 1.001h8a1 1 0 0 0 1-1.001h-10zm6-12.792V6.5a.5.5 0 0 0 .5.5h3.293l-3.793-3.793zM4.502 9.996a.5.5 0 0 0-.5.5v4.003a.5.5 0 0 0 .5.5h10.997a.5.5 0 0 0 .5-.5v-4.003a.5.5 0 0 0-.5-.5H4.502z" fill="#212121"/></svg>