<svg xmlns="http://www.w3.org/2000/svg" width="20" height="20" fill="none" xmlns:v="https://vecta.io/nano"><path d="M8 13.5a.5.5 0 1 0-1 0v2a.5.5 0 1 0 1 0v-2zM10 9a.5.5 0 0 1 .5.5v6a.5.5 0 1 1-1 0v-6A.5.5 0 0 1 10 9zm3 2.5a.5.5 0 1 0-1 0v4a.5.5 0 1 0 1 0v-4zM4 4a2 2 0 0 1 2-2h4.586a1.5 1.5 0 0 1 1.061.439l3.914 3.914A1.5 1.5 0 0 1 16 7.414V16a2 2 0 0 1-2 2H6a2 2 0 0 1-2-2V4zm2-1a1 1 0 0 0-1 1v12a1 1 0 0 0 1 1h8a1 1 0 0 0 1-1V8h-3.5A1.5 1.5 0 0 1 10 6.5V3H6zm5.5 4h3.293L11 3.207V6.5a.5.5 0 0 0 .5.5z" fill="#212121"/></svg>