<svg xmlns="http://www.w3.org/2000/svg" width="48" height="48" fill="none" xmlns:v="https://vecta.io/nano"><path d="M23.135 4.348a1.25 1.25 0 0 1 1.73 0c2.759 2.644 6.685 4.078 10.037 4.84 1.659.377 3.139.581 4.203.69a29.03 29.03 0 0 0 1.246.103l.328.017.08.003h.018.003A1.25 1.25 0 0 1 42 11.25V21c0 9.497-5.059 19.016-17.627 22.943a1.25 1.25 0 0 1-.746 0c-6.238-1.95-10.668-5.292-13.529-9.418C7.243 30.408 6 25.587 6 20.75v-9.5A1.25 1.25 0 0 1 7.22 10h.003.018l.08-.003.328-.017c.289-.017.715-.048 1.246-.103 1.063-.109 2.543-.313 4.202-.69 3.352-.762 7.278-2.196 10.037-4.84zM8.5 12.425v8.325c0 4.413 1.132 8.717 3.652 12.35 2.459 3.545 6.288 6.524 11.848 8.338C35.156 37.799 39.5 29.41 39.5 21v-8.575l-.651-.061c-1.14-.117-2.722-.335-4.501-.739-3.219-.731-7.211-2.102-10.348-4.702-3.137 2.6-7.129 3.971-10.348 4.702-1.778.404-3.361.622-4.501.739l-.651.061z" fill="#212121"/></svg>