<svg xmlns="http://www.w3.org/2000/svg" width="24" height="24" fill="none" xmlns:v="https://vecta.io/nano"><path d="M2 6.75A2.75 2.75 0 0 1 4.75 4h14.5A2.75 2.75 0 0 1 22 6.75v10.5A2.75 2.75 0 0 1 19.25 20H4.75A2.75 2.75 0 0 1 2 17.25V6.75zM4.75 5.5A1.25 1.25 0 0 0 3.5 6.75v10.5a1.25 1.25 0 0 0 1.25 1.25h14.5a1.25 1.25 0 0 0 1.25-1.25V6.75a1.25 1.25 0 0 0-1.25-1.25H4.75zM5 9.25A1.25 1.25 0 0 1 6.25 8h5.5A1.25 1.25 0 0 1 13 9.25v5.5A1.25 1.25 0 0 1 11.75 16h-5.5A1.25 1.25 0 0 1 5 14.75v-5.5zm9-.5a.75.75 0 0 1 .75-.75h3.5a.75.75 0 1 1 0 1.5h-3.5a.75.75 0 0 1-.75-.75zm.75 2.25a.75.75 0 1 0 0 1.5h3.5a.75.75 0 1 0 0-1.5h-3.5zM14 14.75a.75.75 0 0 1 .75-.75h3.5a.75.75 0 1 1 0 1.5h-3.5a.75.75 0 0 1-.75-.75z" fill="#212121"/></svg>